<svg width="20" height="20" viewBox="0 0 20 20" fill="none" xmlns="http://www.w3.org/2000/svg">
<path d="M9.82296 6.66525C8.0412 6.66525 6.58714 8.16376 6.58714 10C6.58714 11.8362 8.0412 13.3348 9.82296 13.3348C11.6047 13.3348 13.0588 11.8362 13.0588 10C13.0588 8.16376 11.6047 6.66525 9.82296 6.66525ZM19.528 10C19.528 8.61907 19.5401 7.25064 19.4649 5.87221C19.3896 4.27113 19.0352 2.85017 17.8992 1.67938C16.7607 0.506085 15.3843 0.14334 13.8307 0.065788C12.4908 -0.0117644 11.1629 0.000744113 9.82539 0.000744113C8.48542 0.000744113 7.1576 -0.0117644 5.82006 0.065788C4.26648 0.14334 2.88768 0.508587 1.75162 1.67938C0.613141 2.85267 0.261158 4.27113 0.185907 5.87221C0.110655 7.25314 0.122792 8.62157 0.122792 10C0.122792 11.3784 0.110655 12.7494 0.185907 14.1278C0.261158 15.7289 0.615569 17.1498 1.75162 18.3206C2.89011 19.4939 4.26648 19.8567 5.82006 19.9342C7.16003 20.0118 8.48785 19.9993 9.82539 19.9993C11.1653 19.9993 12.4932 20.0118 13.8307 19.9342C15.3843 19.8567 16.7631 19.4914 17.8992 18.3206C19.0376 17.1473 19.3896 15.7289 19.4649 14.1278C19.5426 12.7494 19.528 11.3809 19.528 10ZM9.82296 15.131C7.06778 15.131 4.84422 12.8394 4.84422 10C4.84422 7.16058 7.06778 4.86903 9.82296 4.86903C12.5781 4.86903 14.8017 7.16058 14.8017 10C14.8017 12.8394 12.5781 15.131 9.82296 15.131ZM15.0056 5.8572C14.3623 5.8572 13.8429 5.32184 13.8429 4.65889C13.8429 3.99594 14.3623 3.46058 15.0056 3.46058C15.6489 3.46058 16.1684 3.99594 16.1684 4.65889C16.1686 4.81631 16.1386 4.97222 16.0802 5.1177C16.0219 5.26317 15.9362 5.39535 15.8282 5.50666C15.7202 5.61798 15.592 5.70624 15.4508 5.76639C15.3096 5.82654 15.1584 5.8574 15.0056 5.8572Z" fill="#5F9F95"/>
</svg>
