<svg width="292" height="87" viewBox="0 0 292 87" fill="none" xmlns="http://www.w3.org/2000/svg">
<path d="M23.2187 24.3613L16.1836 39.0207M26.1156 29.4602L20.3219 40.9328" stroke="#494343"/>
<path d="M39.04 68.8C36.1067 72.8 31.36 74.8 24.8 74.8C18.24 74.8 13.4933 72.8 10.56 68.8C7.62667 64.7467 6.16 58.4533 6.16 49.92V42.08C6.16 33.5467 7.62667 27.28 10.56 23.28C13.4933 19.2267 18.24 17.2 24.8 17.2C31.36 17.2 36.1067 19.2267 39.04 23.28C41.9733 27.28 43.44 33.5467 43.44 42.08V49.92C43.44 58.4533 41.9733 64.7467 39.04 68.8ZM31.52 20.64C29.6533 19.9467 27.4133 19.6 24.8 19.6C22.1867 19.6 19.9467 19.9467 18.08 20.64C16.2133 21.28 14.5333 22.4 13.04 24C11.5467 25.6 10.4267 27.92 9.68 30.96C8.93333 33.9467 8.56 37.6533 8.56 42.08V49.92C8.56 54.3467 8.93333 58.08 9.68 61.12C10.4267 64.1067 11.5467 66.4 13.04 68C14.5333 69.6 16.2133 70.7467 18.08 71.44C19.9467 72.08 22.1867 72.4 24.8 72.4C27.4133 72.4 29.6533 72.08 31.52 71.44C33.3867 70.7467 35.0667 69.6 36.56 68C38.0533 66.4 39.1733 64.1067 39.92 61.12C40.6667 58.08 41.04 54.3467 41.04 49.92V42.08C41.04 37.6533 40.6667 33.9467 39.92 30.96C39.1733 27.92 38.0533 25.6 36.56 24C35.0667 22.4 33.3867 21.28 31.52 20.64ZM76.7294 50.72L87.6094 74H84.9694L73.7694 50C73.876 49.9467 74.3294 49.7333 75.1294 49.36C75.9827 48.9333 76.5694 48.64 76.8894 48.48C77.2094 48.2667 77.7427 47.92 78.4894 47.44C79.236 46.96 79.796 46.5067 80.1694 46.08C80.5427 45.6 80.9427 45.0667 81.3694 44.48C81.8494 43.84 82.196 43.1467 82.4094 42.4C82.6227 41.6 82.7294 40.7467 82.7294 39.84C82.7294 36.48 81.1294 34 77.9294 32.4C74.7294 30.8 70.756 30 66.0094 30H59.6094V74H57.2094V27.6H66.0094C72.3027 27.6 77.0494 28.6933 80.2494 30.88C83.5027 33.0667 85.1294 36.0533 85.1294 39.84C85.1294 42.2933 84.3027 44.48 82.6494 46.4C80.996 48.2667 79.0227 49.7067 76.7294 50.72ZM98.4594 74V27.6H100.859L126.939 69.6V27.6H129.339V74H126.939L100.859 31.92V74H98.4594ZM148.793 71.6H174.873L158.473 32.96L141.033 74H138.473L158.473 26.8L178.473 74H148.793V71.6ZM217.6 27.6V30H200.8V74H198.4V30H181.6V27.6H217.6ZM226.819 27.6H229.219V74H226.819V27.6ZM256.637 26.64C263.25 26.64 267.944 28.1067 270.717 31.04L269.117 32.8C266.557 30.2933 262.504 29.04 256.957 29.04C248.637 29.04 244.477 32.3467 244.477 38.96C244.477 41.52 245.49 43.5733 247.517 45.12C249.544 46.6133 251.997 47.76 254.877 48.56C257.81 49.36 260.717 50.2133 263.597 51.12C266.53 51.9733 269.01 53.3867 271.037 55.36C273.064 57.28 274.077 59.8133 274.077 62.96C274.077 66.64 272.557 69.5733 269.517 71.76C266.477 73.9467 262.077 75.04 256.317 75.04C253.49 75.04 250.69 74.6667 247.917 73.92C245.197 73.1733 243.17 72.08 241.837 70.64L243.437 68.88C246.157 71.3867 250.344 72.64 255.997 72.64C261.17 72.64 265.064 71.68 267.677 69.76C270.344 67.84 271.677 65.6 271.677 63.04C271.677 60.3733 270.664 58.2133 268.637 56.56C266.61 54.9067 264.13 53.68 261.197 52.88C258.317 52.0267 255.41 51.1733 252.477 50.32C249.597 49.4133 247.144 48.0267 245.117 46.16C243.09 44.2933 242.077 41.84 242.077 38.8C242.077 34.6933 243.437 31.6533 246.157 29.68C248.93 27.6533 252.424 26.64 256.637 26.64Z" fill="#494343"/>
</svg>
