<svg width="23" height="16" viewBox="0 0 23 16" fill="none" xmlns="http://www.w3.org/2000/svg">
<path d="M22.1121 2.51556C21.9851 2.03301 21.7368 1.59293 21.3921 1.23914C21.0474 0.885341 20.6182 0.630165 20.1472 0.499009C18.401 0.00800158 11.4148 8.67428e-06 11.4148 8.67428e-06C11.4148 8.67428e-06 4.42972 -0.0079847 2.68234 0.461327C2.21168 0.598519 1.78336 0.857304 1.4385 1.21284C1.09365 1.56837 0.843837 2.00871 0.713051 2.49158C0.252509 4.27976 0.248049 7.98858 0.248049 7.98858C0.248049 7.98858 0.243588 11.7157 0.700784 13.4856C0.95726 14.4642 1.70996 15.2372 2.66673 15.501C4.43084 15.992 11.3981 16 11.3981 16C11.3981 16 18.3842 16.008 20.1305 15.5398C20.6016 15.4089 21.0312 15.1543 21.3768 14.8012C21.7224 14.4482 21.972 14.0088 22.1009 13.5267C22.5626 11.7396 22.5659 8.03197 22.5659 8.03197C22.5659 8.03197 22.5882 4.30374 22.1121 2.51556ZM9.1801 11.4245L9.18568 4.57323L14.9921 8.00457L9.1801 11.4245Z" fill="#5F9F95"/>
</svg>
