<svg width="216" height="60" viewBox="0 0 216 60" fill="none" xmlns="http://www.w3.org/2000/svg">
<path d="M20.0833 23L13 37.1538M23 27.9231L17.1667 39" stroke="#494343"/>
<path d="M29.28 51.1C27.08 54.1 23.52 55.6 18.6 55.6C13.68 55.6 10.12 54.1 7.92 51.1C5.72 48.06 4.62 43.34 4.62 36.94V31.06C4.62 24.66 5.72 19.96 7.92 16.96C10.12 13.92 13.68 12.4 18.6 12.4C23.52 12.4 27.08 13.92 29.28 16.96C31.48 19.96 32.58 24.66 32.58 31.06V36.94C32.58 43.34 31.48 48.06 29.28 51.1ZM23.64 14.98C22.24 14.46 20.56 14.2 18.6 14.2C16.64 14.2 14.96 14.46 13.56 14.98C12.16 15.46 10.9 16.3 9.78 17.5C8.66 18.7 7.82 20.44 7.26 22.72C6.7 24.96 6.42 27.74 6.42 31.06V36.94C6.42 40.26 6.7 43.06 7.26 45.34C7.82 47.58 8.66 49.3 9.78 50.5C10.9 51.7 12.16 52.56 13.56 53.08C14.96 53.56 16.64 53.8 18.6 53.8C20.56 53.8 22.24 53.56 23.64 53.08C25.04 52.56 26.3 51.7 27.42 50.5C28.54 49.3 29.38 47.58 29.94 45.34C30.5 43.06 30.78 40.26 30.78 36.94V31.06C30.78 27.74 30.5 24.96 29.94 22.72C29.38 20.44 28.54 18.7 27.42 17.5C26.3 16.3 25.04 15.46 23.64 14.98ZM57.547 37.54L65.707 55H63.727L55.327 37C55.407 36.96 55.747 36.8 56.347 36.52C56.987 36.2 57.427 35.98 57.667 35.86C57.907 35.7 58.307 35.44 58.867 35.08C59.427 34.72 59.847 34.38 60.127 34.06C60.407 33.7 60.707 33.3 61.027 32.86C61.387 32.38 61.647 31.86 61.807 31.3C61.967 30.7 62.047 30.06 62.047 29.38C62.047 26.86 60.847 25 58.447 23.8C56.047 22.6 53.067 22 49.507 22H44.707V55H42.907V20.2H49.507C54.227 20.2 57.787 21.02 60.187 22.66C62.627 24.3 63.847 26.54 63.847 29.38C63.847 31.22 63.227 32.86 61.987 34.3C60.747 35.7 59.267 36.78 57.547 37.54ZM73.8445 55V20.2H75.6445L95.2045 51.7V20.2H97.0045V55H95.2045L75.6445 23.44V55H73.8445ZM111.595 53.2H131.155L118.855 24.22L105.775 55H103.855L118.855 19.6L133.855 55H111.595V53.2ZM163.2 20.2V22H150.6V55H148.8V22H136.2V20.2H163.2ZM170.114 20.2H171.914V55H170.114V20.2ZM192.478 19.48C197.438 19.48 200.958 20.58 203.038 22.78L201.838 24.1C199.918 22.22 196.878 21.28 192.718 21.28C186.478 21.28 183.358 23.76 183.358 28.72C183.358 30.64 184.118 32.18 185.638 33.34C187.158 34.46 188.998 35.32 191.158 35.92C193.358 36.52 195.538 37.16 197.698 37.84C199.898 38.48 201.758 39.54 203.278 41.02C204.798 42.46 205.558 44.36 205.558 46.72C205.558 49.48 204.418 51.68 202.138 53.32C199.858 54.96 196.558 55.78 192.238 55.78C190.118 55.78 188.018 55.5 185.938 54.94C183.898 54.38 182.378 53.56 181.378 52.48L182.578 51.16C184.618 53.04 187.758 53.98 191.998 53.98C195.878 53.98 198.798 53.26 200.758 51.82C202.758 50.38 203.758 48.7 203.758 46.78C203.758 44.78 202.998 43.16 201.478 41.92C199.958 40.68 198.098 39.76 195.898 39.16C193.738 38.52 191.558 37.88 189.358 37.24C187.198 36.56 185.358 35.52 183.838 34.12C182.318 32.72 181.558 30.88 181.558 28.6C181.558 25.52 182.578 23.24 184.618 21.76C186.698 20.24 189.318 19.48 192.478 19.48Z" fill="#494343"/>
</svg>
