<svg width="5605" height="562" viewBox="0 0 5605 562" fill="none" xmlns="http://www.w3.org/2000/svg">
<path d="M5604.76 63.264L5418.01 39.2052C5231.27 16.0357 4857.78 -33.4161 4484.14 37.8654C4110.51 107.813 3736.74 298.493 3363.12 356.434C2989.51 415.264 2616.04 343.578 2242.56 283.676C1869.09 224.664 1495.59 175.212 1122.06 163.559C748.526 151.906 374.952 173.604 188.163 186.01L1.37538 197.526L0.955597 553.278L187.729 553.546C374.503 553.814 748.051 554.35 1121.6 554.886C1495.15 555.421 1868.69 555.957 2242.24 556.493C2615.79 557.029 2989.34 557.565 3362.89 558.101C3736.43 558.637 4109.98 559.173 4483.53 559.709C4857.08 560.245 5230.62 560.781 5417.4 561.048L5604.17 561.316L5604.76 63.264Z" fill="url(#paint0_linear_1121_1180)"/>
<defs>
<linearGradient id="paint0_linear_1121_1180" x1="2916.14" y1="274.623" x2="1370.88" y2="145.134" gradientUnits="userSpaceOnUse">
<stop offset="0.0625" stop-color="#C9E9E3"/>
<stop offset="0.0626" stop-color="#C9E9E3"/>
<stop offset="1" stop-color="#93DCD0"/>
</linearGradient>
</defs>
</svg>
