<svg width="5604" height="669" viewBox="0 0 5604 669" fill="none" xmlns="http://www.w3.org/2000/svg">
<path d="M5603.92 74.3041L5417.18 45.6625C5230.44 18.0816 4856.96 -40.7927 4483.31 44.3228C4109.66 127.847 3735.84 355.361 3362.21 424.566C2988.58 494.832 2615.14 409.44 2241.67 338.103C1868.21 267.826 1494.73 208.952 1121.19 195.157C747.662 181.362 374.083 207.344 187.291 222.191L0.501107 235.977L0.000457407 660.256L186.774 660.524C373.548 660.792 747.095 661.328 1120.64 661.864C1494.19 662.4 1867.74 662.936 2241.29 663.472C2614.83 664.008 2988.38 664.544 3361.93 665.079C3735.48 665.615 4109.03 666.151 4482.57 666.687C4856.12 667.223 5229.67 667.759 5416.44 668.027L5603.22 668.295L5603.92 74.3041Z" fill="url(#paint0_linear_1121_1180)"/>
<defs>
<linearGradient id="paint0_linear_1121_1180" x1="2915.25" y1="327.12" x2="1366.85" y2="218.031" gradientUnits="userSpaceOnUse">
<stop offset="0.0625" stop-color="#C9E9E3"/>
<stop offset="0.0626" stop-color="#C9E9E3"/>
<stop offset="1" stop-color="#93DCD0"/>
</linearGradient>
</defs>
</svg>
